<svg xmlns="http://www.w3.org/2000/svg" width="256" height="256" viewBox="0 0 100 100"><rect width="100" height="100" rx="50" fill="#46bf94"></rect><path d="M10.58 52.31L10.58 52.31L9.44 52.31L9.44 52.43L9.68 57.63L7.00 57.63L7.24 52.77L7.00 43.83L11.34 43.83Q13.26 43.83 14.40 44.87Q15.54 45.91 15.54 47.63L15.54 47.63Q15.54 48.93 14.87 50Q14.20 51.07 13.06 51.69L13.06 51.69L16.54 56.61L14.12 57.85L11.00 52.29Q10.86 52.31 10.58 52.31ZM10.62 45.85L10.62 45.85L9.64 45.85L9.50 50.37L10.86 50.37Q11.86 50.37 12.41 49.71Q12.96 49.05 12.96 47.83L12.96 47.83Q12.96 45.85 10.62 45.85ZM21.74 55.59L21.74 55.59Q22.32 55.59 22.96 55.29Q23.60 54.99 23.96 54.69L23.96 54.69L24.32 54.39L25.24 55.51Q25.04 55.85 24.62 56.29Q24.20 56.73 23.77 57.04Q23.34 57.35 22.63 57.60Q21.92 57.85 21.16 57.85L21.16 57.85Q19.54 57.85 18.52 56.62Q17.50 55.39 17.50 53.45L17.50 53.45Q17.50 51.01 18.92 49.17Q20.34 47.33 22.24 47.33L22.24 47.33Q23.70 47.33 24.51 48.15Q25.32 48.97 25.32 50.45L25.32 50.45Q25.32 51.33 25.02 52.45L25.02 52.45L24.62 52.87L19.62 53.33Q19.96 55.59 21.74 55.59ZM21.74 49.39L21.74 49.39Q20.86 49.39 20.26 50.10Q19.66 50.81 19.56 51.91L19.56 51.91L22.96 51.49Q23.02 51.03 23.02 50.73L23.02 50.73Q23.02 49.39 21.74 49.39ZM29.06 57.63Q27.88 57.63 27.13 56.88Q26.38 56.13 26.38 54.86Q26.38 53.59 27.54 52.66Q28.70 51.73 30.36 51.73L30.36 51.73L31.72 51.73L31.72 51.39Q31.72 50.41 31.32 50.05Q30.92 49.69 29.82 49.69L29.82 49.69Q29.36 49.69 28.73 49.88Q28.10 50.07 27.32 50.47L27.32 50.47L26.74 48.89Q27.60 48.29 28.83 47.81Q30.06 47.33 30.86 47.33L30.86 47.33Q34.00 47.33 34.00 50.37L34.00 50.37L34.00 54.29Q34.00 55.41 34.70 56.79L34.70 56.79L32.58 57.69Q32.08 56.73 31.84 55.97L31.84 55.97Q30.74 57.63 29.06 57.63L29.06 57.63ZM29.90 55.59L29.90 55.59Q30.70 55.59 31.72 54.77L31.72 54.77L31.72 53.43Q30.66 53.19 30.00 53.19L30.00 53.19Q28.74 53.19 28.74 54.31L28.74 54.31Q28.74 54.89 29.06 55.24Q29.38 55.59 29.90 55.59ZM36.44 42.65L39.18 42.15L38.92 52.43L39.14 57.13L36.44 57.63L36.68 52.77L36.44 42.65ZM55.38 51.43L56.24 55.13L56.46 55.13L57.40 51.69L59.32 43.71L61.58 44.07L59.40 52.01L58.06 57.47L54.40 57.73L53.26 52.39L52.58 49.75L51.98 52.01L50.64 57.47L47.04 57.73L45.84 52.39L43.76 44.21L46.36 43.71L47.98 51.43L48.88 55.13L49.10 55.13L50.16 51.43L51.62 46.03L51.16 44.21L53.80 43.71L55.38 51.43ZM62.48 53.45Q62.48 50.89 63.86 49.11Q65.24 47.33 67.09 47.33Q68.94 47.33 69.97 48.53Q71 49.73 71 51.71L71 51.71Q71 54.35 69.67 56.10Q68.34 57.85 66.32 57.85L66.32 57.85Q64.66 57.85 63.57 56.60Q62.48 55.35 62.48 53.45L62.48 53.45ZM68.76 52.75L68.76 52.75Q68.76 49.85 66.78 49.85L66.78 49.85Q64.72 49.85 64.72 52.57L64.72 52.57Q64.72 53.99 65.30 54.79Q65.88 55.59 66.83 55.59Q67.78 55.59 68.27 54.86Q68.76 54.13 68.76 52.75ZM72.50 47.97L72.50 47.97L74.92 47.45Q75.10 48.99 75.16 50.37L75.16 50.37Q76.98 47.55 78.58 47.55L78.58 47.55L78.36 50.67Q77.20 50.67 76.53 50.88Q75.86 51.09 75.16 51.71L75.16 51.71L75.16 52.43L75.38 57.13L72.70 57.63L72.94 52.77Q72.86 50.09 72.50 47.97ZM79.84 42.65L82.58 42.15L82.32 52.43L82.54 57.13L79.84 57.63L80.08 52.77L79.84 42.65ZM90.18 55.67L90.18 55.67Q88.62 57.63 87.48 57.63L87.48 57.63Q86.06 57.63 85.15 56.47Q84.24 55.31 84.24 53.49L84.24 53.49Q84.24 50.99 85.63 49.27Q87.02 47.55 89.04 47.55L89.04 47.55L90.16 47.71L90.16 47.33L89.92 42.65L92.66 42.15L92.40 52.43L92.40 54.19Q92.40 55.39 93.00 56.95L93.00 56.95L90.84 57.85Q90.26 56.65 90.18 55.67ZM86.48 52.45Q86.48 53.73 86.95 54.45Q87.42 55.17 88.31 55.17Q89.20 55.17 90.16 54.45L90.16 54.45L90.16 50.13Q88.96 49.89 88.38 49.89L88.38 49.89Q87.48 49.89 86.98 50.53Q86.48 51.17 86.48 52.45Z" fill="#fff"></path></svg>